<?xml version="1.0" encoding="UTF-8" standalone="no"?>
<!-- Created with Inkscape (http://www.inkscape.org/) -->

<svg
   xmlns:dc="http://purl.org/dc/elements/1.1/"
   xmlns:cc="http://creativecommons.org/ns#"
   xmlns:rdf="http://www.w3.org/1999/02/22-rdf-syntax-ns#"
   xmlns:svg="http://www.w3.org/2000/svg"
   xmlns="http://www.w3.org/2000/svg"
   xmlns:sodipodi="http://sodipodi.sourceforge.net/DTD/sodipodi-0.dtd"
   xmlns:inkscape="http://www.inkscape.org/namespaces/inkscape"
   width="82.883446mm"
   height="26.03182mm"
   viewBox="0 0 82.883446 26.031821"
   version="1.1"
   id="svg8"
   sodipodi:docname="Cloud-3.svg"
   inkscape:version="0.92.4 (5da689c313, 2019-01-14)">
  <defs
     id="defs2" />
  <sodipodi:namedview
     id="base"
     pagecolor="#ffffff"
     bordercolor="#666666"
     borderopacity="1.0"
     inkscape:pageopacity="0"
     inkscape:pageshadow="2"
     inkscape:zoom="2.8"
     inkscape:cx="197.84086"
     inkscape:cy="17.46445"
     inkscape:document-units="mm"
     inkscape:current-layer="g823"
     showgrid="false"
     inkscape:pagecheckerboard="false"
     inkscape:window-width="1366"
     inkscape:window-height="706"
     inkscape:window-x="-8"
     inkscape:window-y="-8"
     inkscape:window-maximized="1"
     showguides="false"
     fit-margin-top="0"
     fit-margin-left="0"
     fit-margin-right="0"
     fit-margin-bottom="0" />
  <metadata
     id="metadata5">
    <rdf:RDF>
      <cc:Work
         rdf:about="">
        <dc:format>image/svg+xml</dc:format>
        <dc:type
           rdf:resource="http://purl.org/dc/dcmitype/StillImage" />
        <dc:title></dc:title>
      </cc:Work>
    </rdf:RDF>
  </metadata>
  <g
     inkscape:label="Layer 1"
     inkscape:groupmode="layer"
     id="layer1"
     transform="translate(-3.6515874,-258.67536)">
    <g
       id="g826"
       transform="translate(0,20.637492)">
      <g
         transform="translate(0,28.045832)"
         id="g823">
        <path
           style="fill:#ffffff;fill-opacity:1;stroke:none;stroke-width:0.10112026px;stroke-linecap:butt;stroke-linejoin:miter;stroke-opacity:1"
           d="m 81.902308,228.47298 c 1.114656,2.48687 -5.629677,1.39682 -8.724798,2.33132 1.670875,1.19461 -3.502081,3.16754 -7.684742,0.40859 -1.3043,0.66117 -3.054754,1.65476 -6.014275,-0.11967 0.115474,2.97344 -4.666758,3.08177 -8.824272,3.05924 -3.155483,-0.0171 -5.882719,0.30232 -5.488684,-0.59019 -0.786999,1.68105 -5.855695,2.24848 -7.613574,-0.71503 -0.436064,1.12167 -3.37557,1.51958 -4.133319,-0.51073 -1.742439,5.71788 -6.992101,3.68692 -10.316837,1.22576 -3.269242,1.16174 -3.924227,-0.18276 -3.526634,-2.13889 -3.060628,0.50386 -5.94648,1.16644 -9.09727,0.76867 0.37003,-0.21278 0.695541,-0.292 1.153534,-0.76867 -2.9864176,-0.41057 -5.7637526,-0.84965 -7.9798496,-2.03054 2.133029,-1.01797 4.320747,-1.17987 6.7416946,-1.43006 -0.5768346,-0.61504 -0.4452596,-1.48626 -0.4684236,-2.26582 -0.998253,-0.45453 -1.157667,-0.71296 -0.865682,-0.87081 -4.357123,-0.28791 -3.467668,-2.89864 1.2742686,-3.11292 0.718624,-2.79708 7.200015,-0.49782 11.542599,-1.63435 -0.686343,-0.78313 -0.864341,-1.56625 -0.204293,-2.34938 -3.927665,0.33638 -7.927822,0.23782 -11.9511866,0 1.6658636,-0.18464 1.7972186,-0.49716 5.5159326,-0.51073 -0.682948,-0.17827 -1.02426,-0.44194 -1.327911,-0.71503 2.106169,-0.40642 3.250297,-0.54979 4.530579,-0.58916 l -1.568318,-0.43231 c 1.461806,-0.49428 4.081117,-0.69919 6.23096,-1.02147 0.448532,-1.35238 1.778744,-1.27203 2.962261,-1.43005 -0.981969,-3.38934 5.703279,-4.4224 7.516559,-0.60049 0.770966,-0.81721 3.590613,0.092 1.063779,3.56275 1.096785,0.13567 3.894975,0.6305 2.042938,2.65582 2.464545,0.66014 2.302723,1.95062 2.451527,3.16655 1.647825,-0.65476 2.40762,1.28208 1.94079,2.45152 2.68262,-0.60335 4.85461,0.23417 5.20949,2.65582 1.001589,-1.4417 2.738552,0.74414 12.359779,-1.12361 -1.194373,-0.59846 -4.982784,-0.41872 -2.757968,-2.04294 -3.030359,0.14235 -6.060716,0.5025 -9.091076,0.2043 0.781293,-0.2043 1.827981,-0.40859 3.472993,-0.61289 -0.299474,-0.23263 -3.271171,-0.32212 1.327912,-0.81717 -0.974389,-0.8069 2.26499,-0.73328 3.978597,-0.82337 -2.911789,-0.91803 -0.29102,-0.94897 2.7631,-0.91313 0,0 1.492952,-2.32888 6.230961,-0.20429 -0.07475,-2.2344 6.851199,-3.39516 7.25243,-0.2043 1.812468,1.53289 0.814387,2.08169 0.612879,2.55368 3.083449,0.54374 3.199466,1.87299 3.064409,3.26869 0.554981,-0.19755 1.188306,0.13497 1.838643,0.31884 1.186587,-0.30032 2.25431,-0.36291 2.962261,0.29405 l 1.838644,-0.10215 c -1.193054,0.95359 2.426607,1.10507 4.392317,1.53221 z"
           id="path855"
           inkscape:connector-curvature="0"
           sodipodi:nodetypes="ccccsccccccccccccccccccccccccccccccccccccccccccc" />
      </g>
    </g>
  </g>
</svg>
