<?xml version="1.0" encoding="UTF-8" standalone="no"?>
<!-- Created with Inkscape (http://www.inkscape.org/) -->

<svg
   xmlns:dc="http://purl.org/dc/elements/1.1/"
   xmlns:cc="http://creativecommons.org/ns#"
   xmlns:rdf="http://www.w3.org/1999/02/22-rdf-syntax-ns#"
   xmlns:svg="http://www.w3.org/2000/svg"
   xmlns="http://www.w3.org/2000/svg"
   xmlns:sodipodi="http://sodipodi.sourceforge.net/DTD/sodipodi-0.dtd"
   xmlns:inkscape="http://www.inkscape.org/namespaces/inkscape"
   width="46.866241mm"
   height="12.013141mm"
   viewBox="0 0 46.866241 12.013141"
   version="1.1"
   id="svg8"
   sodipodi:docname="Cloud-5.svg"
   inkscape:version="0.92.4 (5da689c313, 2019-01-14)">
  <defs
     id="defs2" />
  <sodipodi:namedview
     id="base"
     pagecolor="#ffffff"
     bordercolor="#666666"
     borderopacity="1.0"
     inkscape:pageopacity="0"
     inkscape:pageshadow="2"
     inkscape:zoom="1.4"
     inkscape:cx="120.0896"
     inkscape:cy="122.23234"
     inkscape:document-units="mm"
     inkscape:current-layer="g823"
     showgrid="false"
     inkscape:pagecheckerboard="false"
     inkscape:window-width="1366"
     inkscape:window-height="706"
     inkscape:window-x="-8"
     inkscape:window-y="-8"
     inkscape:window-maximized="1"
     showguides="false"
     fit-margin-top="0"
     fit-margin-left="0"
     fit-margin-right="0"
     fit-margin-bottom="0" />
  <metadata
     id="metadata5">
    <rdf:RDF>
      <cc:Work
         rdf:about="">
        <dc:format>image/svg+xml</dc:format>
        <dc:type
           rdf:resource="http://purl.org/dc/dcmitype/StillImage" />
        <dc:title></dc:title>
      </cc:Work>
    </rdf:RDF>
  </metadata>
  <g
     inkscape:label="Layer 1"
     inkscape:groupmode="layer"
     id="layer1"
     transform="translate(-16.868216,-263.2572)">
    <g
       id="g826"
       transform="translate(0,20.637492)">
      <g
         transform="translate(0,28.045832)"
         id="g823">
        <path
           style="fill:#ffffff;fill-opacity:1;stroke:none;stroke-width:0.11805379px;stroke-linecap:butt;stroke-linejoin:miter;stroke-opacity:1"
           d="m 16.868216,226.36995 c 4.35724,0.4211 7.944012,0.22285 11.910325,-0.53663 7.286323,0.55779 14.459286,-0.42654 21.599577,0.0597 5.868423,0.0181 12.519222,0.89673 13.35626,-0.77514 0.02994,-0.0329 -8.531341,-0.78775 -8.914111,-0.73043 0.839841,-3.56247 -0.10384,-2.62824 -0.968928,-1.89312 -0.20903,-3.76038 -4.236283,-0.91724 -4.531587,-0.35777 -0.584524,-1.01915 -1.264991,-1.30273 -1.967661,-1.41611 0.710782,-1.58223 0.897958,-2.88387 -0.223602,-2.45959 -0.864238,-4.70177 -3.409252,-3.99877 -3.845883,-2.80243 -4.955006,-1.60725 -4.887225,4.1015 -2.265793,5.48561 -2.174852,0.96313 -1.729891,1.84726 -1.863319,2.01239 -1.184901,-1.2588 -1.409516,-0.39297 -2.191263,-0.64099 0.120515,-0.76327 -2.036057,-3.00528 -2.802428,-1.25214 -4.334368,-2.12117 -4.635919,2.06572 -3.339066,2.89187 -1.838409,-0.50142 -3.51412,-0.70334 -4.30799,0.9093 -0.890331,-1.18241 -2.605722,0.46005 -4.661825,0.56472 -2.593693,-0.20432 -4.890318,0.86092 -4.982706,0.94084 z"
           id="path892"
           inkscape:connector-curvature="0"
           sodipodi:nodetypes="cccccccccccccccccc" />
      </g>
    </g>
  </g>
</svg>
