<?xml version="1.0" encoding="UTF-8" standalone="no"?>
<svg
   xmlns:dc="http://purl.org/dc/elements/1.1/"
   xmlns:cc="http://creativecommons.org/ns#"
   xmlns:rdf="http://www.w3.org/1999/02/22-rdf-syntax-ns#"
   xmlns:svg="http://www.w3.org/2000/svg"
   xmlns="http://www.w3.org/2000/svg"
   xmlns:sodipodi="http://sodipodi.sourceforge.net/DTD/sodipodi-0.dtd"
   xmlns:inkscape="http://www.inkscape.org/namespaces/inkscape"
   width="85.39505mm"
   height="97.276176mm"
   viewBox="0 0 85.395051 97.27619"
   version="1.1"
   id="svg8"
   sodipodi:docname="WebDevIllustration.svg"
   inkscape:version="0.92.4 (5da689c313, 2019-01-14)">
  <sodipodi:namedview
     pagecolor="#ffffff"
     bordercolor="#666666"
     borderopacity="1"
     objecttolerance="10"
     gridtolerance="10"
     guidetolerance="10"
     inkscape:pageopacity="0"
     inkscape:pageshadow="2"
     inkscape:window-width="1366"
     inkscape:window-height="706"
     id="namedview30"
     showgrid="false"
     inkscape:zoom="1.2838018"
     inkscape:cx="79.43938"
     inkscape:cy="167.93518"
     inkscape:window-x="-8"
     inkscape:window-y="-8"
     inkscape:window-maximized="1"
     inkscape:current-layer="layer1" />
  <defs
     id="defs2" />
  <metadata
     id="metadata5">
    <rdf:RDF>
      <cc:Work
         rdf:about="">
        <dc:format>image/svg+xml</dc:format>
        <dc:type
           rdf:resource="http://purl.org/dc/dcmitype/StillImage" />
        <dc:title />
      </cc:Work>
    </rdf:RDF>
  </metadata>
  <g
     id="layer1"
     transform="translate(-49.078915,-207.12023)">
    <ellipse
       style="opacity:1;fill:#cfcfcf;fill-opacity:1;stroke:none;stroke-width:0.52999997;stroke-linecap:round;stroke-linejoin:round;stroke-miterlimit:10;stroke-dasharray:none;stroke-opacity:1"
       id="path815"
       cx="190.83044"
       cy="183.14319"
       rx="28.86511"
       ry="0" />
    <path
       style="fill:#ffb380;fill-opacity:1;stroke:none;stroke-width:0.46054798px;stroke-linecap:butt;stroke-linejoin:miter;stroke-opacity:1"
       d="m 88.379048,229.35398 c -2.501626,5.12913 -8.129843,8.15101 -1.334798,15.69926 0,0 -2.812624,2.93711 -6.131387,3.19756 -3.318764,0.26048 -10.281429,-6.72141 -10.281429,-6.72141 2.955342,-4.0572 0.644093,-6.56435 -1.022203,-10.62155 z"
       id="path883" />
    <path
       style="opacity:1;fill:#ffb380;fill-opacity:1;stroke:none;stroke-width:1.00349271;stroke-linecap:round;stroke-linejoin:round;stroke-miterlimit:10;stroke-dasharray:none;stroke-opacity:1"
       d="m 65.16449,222.46084 c -5e-6,7.2132 6.049899,11.36373 13.060659,13.06068 11.589636,2.80526 13.577581,-5.45141 13.060683,-13.06068 4e-6,-7.21322 -5.847465,-13.06069 -13.060683,-13.06069 -7.213208,1e-5 -13.060663,5.84748 -13.060659,13.06069 z"
       id="path899" />
    <path
       id="path951"
       d="m 89.533644,212.19981 c 0.101879,2.02632 -7.143753,-0.61265 -10.164636,2.90637 -3.020871,3.519 1.276314,10.62107 -0.875196,11.29266 -2.151561,0.67138 -2.317672,-4.02454 -4.717469,-3.07115 -2.399973,0.95295 -0.745436,10.81441 -2.724775,11.32533 -1.978952,0.51236 -7.757294,-10.30885 -5.994793,-17.62948 1.762501,-7.32062 10.999493,-10.62999 16.063698,-9.77013 5.064206,0.85987 8.311255,2.92017 8.413171,4.9464 z"
       style="fill:#2f2e41;fill-opacity:1;stroke:none;stroke-width:0.21776615px;stroke-linecap:butt;stroke-linejoin:miter;stroke-opacity:1" />
    <path
       id="rect1036"
       transform="matrix(0.26458335,0,0,0.26458335,44.07828,207.12023)"
       d="m 100.35742,130.04883 c 0,0 -2.083153,0.5548 -3.033201,0.80273 -1.736291,0.48994 -4.031777,2.27331 -6.210359,2.9184 -14.311411,4.80131 -46.012542,18.97162 -54.875519,29.5758 -8.435443,10.09265 -5.274636,66.69176 -4.40622,101.35932 0.228584,8.33412 -0.567191,15.3201 -0.584074,19.72656 -2.9e-5,0.0105 3.1e-5,0.0266 0,0.0371 -0.0045,1.54412 -0.03252,2.80015 -0.08789,3.70508 -0.535978,8.75877 -7.627044,29.63904 -8.30063,47.38752 0.383041,8.14087 -0.958547,14.95205 5.767427,19.45427 20.518525,13.735 39.147279,-1.38803 71.685546,-4.29101 40.85745,-3.6443 76.63925,7.3291 83.22852,-3.99414 8.59144,-14.76393 3.31348,-84.65287 3.61653,-100.77286 0.30295,-16.12002 17.30925,-64.5123 17.30925,-64.5123 0,0 -2.72633,-11.54627 -3.70508,-13.91211 -3.81966,-9.23278 -15.64085,-7.50312 -23.67347,-12.29666 -4.51611,-2.85248 -9.24345,-8.24395 -14.68981,-11.86349 l -0.004,-0.004 h -0.004 c -0.005,0.005 -10.91278,10.61151 -23.45312,11.5957 -12.54336,0.98446 -38.57812,-24.91601 -38.57812,-24.91601 z"
       style="opacity:1;fill:#f1f2f6;fill-opacity:1;stroke:none;stroke-width:1.74339485;stroke-linecap:round;stroke-linejoin:round;stroke-miterlimit:10;stroke-dasharray:none;stroke-opacity:1"
       inkscape:connector-curvature="0"
       sodipodi:nodetypes="cccscccccccccccccccccc" />
    <path
       style="opacity:1;fill:#181d27;fill-opacity:1;stroke:none;stroke-width:0.39756751;stroke-linecap:round;stroke-linejoin:round;stroke-miterlimit:10;stroke-dasharray:none;stroke-opacity:1"
       d="m 87.681996,245.35607 c 0,0 1.508362,1.31867 3.633673,2.58698 2.125312,1.26829 5.028109,1.11381 6.03874,3.55664 0.258949,0.62596 0.980455,3.68079 0.980455,3.68079 0,0 -4.193411,12.80277 -4.273567,17.06786 -0.08018,4.26509 0.852838,23.62585 -1.420316,27.53213 -1.135442,1.95118 -5.557351,1.4015 -11.482213,1.04613 0,0 -0.880845,-2.79223 -0.825005,-4.43259 0.125397,-3.68355 1.206333,-10.7018 1.715527,-17.90017 0.394484,-5.57688 0.226714,-11.18885 0.392177,-15.90417 0.119835,-3.41439 1.600056,-10.44103 1.980187,-11.37722 0.511999,-1.26094 3.260342,-5.85638 3.260342,-5.85638 z"
       id="rect1329" />
    <path
       style="opacity:1;fill:#181d27;fill-opacity:1;stroke:none;stroke-width:0.46127325;stroke-linecap:round;stroke-linejoin:round;stroke-miterlimit:10;stroke-dasharray:none;stroke-opacity:1"
       d="m 69.925105,241.6491 c 0,0 4.603145,5.54671 6.298832,9.33197 0.06347,3.69451 1.775495,7.01999 1.984564,10.70847 0.254946,4.49821 0.712378,9.68802 0.742742,14.24956 0.04739,7.11881 -0.420907,13.62532 -0.289675,20.64195 0.03916,2.85348 -0.218895,5.0307 -0.473879,5.02183 -1.19107,-0.0415 -4.933646,-0.0793 -7.567553,0.15561 -8.609084,0.76808 -13.538152,4.76922 -18.967032,1.13518 -5.42889,-3.63402 -0.62057,-15.73631 -0.38858,-19.52741 0.23199,-3.79111 -1.427695,-30.22022 1.527437,-33.75591 2.955132,-3.53569 17.133154,-7.96125 17.133154,-7.96125 z"
       id="rect1347" />
    <flowRoot
       xml:space="preserve"
       id="flowRoot1483"
       style="font-style:normal;font-weight:normal;font-size:40px;line-height:1.25;font-family:sans-serif;letter-spacing:0px;word-spacing:0px;fill:#000000;fill-opacity:1;stroke:none"
       transform="matrix(0.26458333,0,0,0.26458333,0,-14.379996)"><flowRegion
         id="flowRegion1485"><rect
           id="rect1487"
           width="66.752296"
           height="41.790302"
           x="860.20709"
           y="804.96362" /></flowRegion><flowPara
         id="flowPara1489">&lt;&lt;,</flowPara></flowRoot>    <path
       style="opacity:1;fill:#000000;fill-opacity:0.25098039;stroke:none;stroke-width:1.00349271;stroke-linecap:round;stroke-linejoin:round;stroke-miterlimit:10;stroke-dasharray:none;stroke-opacity:1"
       d="m 73.268339,233.79819 c 1.541841,0.73111 3.219521,1.3029 4.956802,1.72341 2.461487,0.5958 4.488315,0.691 6.151562,0.40101 -0.182657,0.4265 -0.329057,0.86172 -0.427363,1.31103 -1.083479,-0.0493 -2.280147,-0.22386 -3.603397,-0.54415 -2.572898,-0.62277 -5.015071,-1.57751 -7.077604,-2.8913 z"
       id="path899-1" />
    <path
       style="fill:#ffb380;fill-opacity:1;stroke:none;stroke-width:0.55754721px;stroke-linecap:butt;stroke-linejoin:miter;stroke-opacity:1"
       d="m 79.550145,242.85357 c -1.13377,-1.6606 1.107187,-4.77052 0.07695,-7.63443 0,0 -2.674238,-3.61263 -1.346538,-4.28676 1.327695,-0.67411 2.443226,2.15311 3.698884,3.09381 2.175277,1.62964 10.523762,-7.69849 11.06927,-5.43985 0.365892,1.515 -5.734799,5.31364 -5.337324,5.98981 0.474092,0.80648 4.514475,3.48494 1.466666,6.2386 -1.405386,1.26976 -4.47902,3.67218 -4.47902,3.67218 z"
       id="path1312-9" />
    <path
       style="fill:#000000;fill-opacity:0.25098039;stroke:none;stroke-width:2.107265px;stroke-linecap:butt;stroke-linejoin:miter;stroke-opacity:1"
       d="m 362.94336,674.98242 c -8.754,4.7867 -25.73724,21.07002 -33.86328,21.27344 6.13226,3.53059 23.15937,-12.34085 33.42578,-19.12695 0.15845,-0.70846 0.30351,-1.42371 0.4375,-2.14649 z m -49.04102,8.47852 c -0.45743,0.0227 -0.92018,0.1459 -1.39062,0.38476 -5.01808,2.5479 5.08789,16.20118 5.08789,16.20118 3.34378,9.2952 -2.42045,19.27376 -1.4043,25.88281 0.6981,-0.18657 1.41613,-0.31851 2.15039,-0.40235 -0.4233,-6.59403 4.69877,-16.09923 1.50391,-24.98046 0,0 -10.10597,-13.65328 -5.08789,-16.20118 0.39035,-0.19804 0.77497,-0.30747 1.15625,-0.35547 -0.66163,-0.35527 -1.33101,-0.56376 -2.01563,-0.52929 z"
       transform="matrix(0.26458333,0,0,0.26458333,-5,49.866066)"
       id="path1312-9-5-8" />
    <path
       style="fill:#000000;fill-opacity:0.25098039;stroke:none;stroke-width:1.74065375px;stroke-linecap:butt;stroke-linejoin:miter;stroke-opacity:1"
       d="m 345.86133,741.20898 c -0.65566,2.18231 -1.5327,5.06704 -1.77735,8.45899 -1.84792,25.61578 -13.66827,94.68991 -41.97656,99.73047 -28.09975,5.00343 -55.26417,-53.47358 -85.01953,-72.20117 -0.0366,1.47954 0.0211,-1.59288 0,0 15.20371,8.56734 44.11823,74.70816 85.56246,77.29492 28.30829,-5.04061 40.12863,-74.11465 41.97656,-99.73047 0.48582,-6.73588 3.47657,-11.48714 2.24219,-12.66602 -0.29062,-0.27755 -0.65582,-0.58459 -1.00781,-0.88672 z"
       transform="matrix(0.26458333,0,0,0.26458333,-5,49.866066)"
       id="path1103-6" />
    <path
       style="fill:#181d27;fill-opacity:1;stroke:none;stroke-width:1.74065375px;stroke-linecap:butt;stroke-linejoin:miter;stroke-opacity:1"
       d="m 319.91602,725.41602 c -2.27764,0.0529 -4.43965,0.5185 -6.36329,1.53515 -1.76813,0.93447 -0.83738,5.17134 -3.16211,10.07813 -9.88495,20.86345 -18.02929,60.67578 -18.02929,60.67578 -3.79698,0.22244 -28.42732,-43.29063 -52.19141,-56.48047 -9.57911,4.45329 -18.0256,9.26576 -21.74414,13.71484 -2.77262,3.31733 -4.46766,11.97325 -5.4668,23.32227 27.90134,22.03564 61.62416,76.0377 89.14844,71.13672 28.30829,-5.04058 40.12863,-74.11468 41.97656,-99.73047 0.48582,-6.73591 3.47657,-11.48518 2.24219,-12.66406 -3.44193,-3.28723 -11.37677,-8.50986 -19.34765,-10.64063 -2.39127,-0.63923 -4.78487,-1.00016 -7.0625,-0.94726 z"
       transform="matrix(0.26458333,0,0,0.26458333,-5,49.866066)"
       id="path1103" />
    <path
       style="fill:#000000;fill-opacity:0.25098039;stroke:none;stroke-width:1.74065387px;stroke-linecap:butt;stroke-linejoin:miter;stroke-opacity:1"
       d="m 259.57812,757.48828 c 15.86245,17.0576 29.19778,38.99175 32.5,40.16211 0.0984,0.0245 0.20334,0.0594 0.28321,0.0547 0,0 3.87845,-18.95301 9.52929,-37.5586 -6.83717,17.26277 -9.88281,32.54883 -9.88281,32.54883 -2.99082,0.17514 -15.77545,-20.48721 -32.42969,-35.20703 z"
       transform="matrix(0.26458333,0,0,0.26458333,-5,49.866066)"
       id="path1103-8-9" />
    <g
       id="g1155"
       transform="rotate(-1.8601349,88.960748,242.33233)">
      <path
         id="path1103-5"
         d="m 87.802348,259.90729 c 2.173672,3.56081 16.507942,7.50318 23.657752,6.0384 8.33042,-2.87854 5.6403,-13.62157 -2.75802,-11.7472 -4.11496,1.25999 -12.967828,-5.35698 -16.263876,-5.1063 -4.970792,0.37804 -6.179041,8.28707 -4.635896,10.81507 z"
         style="fill:#181d27;fill-opacity:1;stroke:none;stroke-width:0.46054798px;stroke-linecap:butt;stroke-linejoin:miter;stroke-opacity:1" />
      <g
         id="g868"
         transform="rotate(2.8726735,110.39128,260.76187)">
        <g
           id="g873">
          <path
             id="path1312-9-1-8"
             d="m 127.75503,236.53855 c -1.12254,0.37291 -2.10576,1.74609 -2.62482,2.47964 0.56037,0.032 1.99409,-1.08952 2.61772,-0.97047 0.72593,0.13857 1.8098,0.19307 2.47843,0.90212 0.94022,1.51462 0.28466,2.8113 1.20806,2.88582 0.92341,0.0745 0.97909,-2.62977 0.0845,-3.9152 -0.89456,-1.28543 -2.64139,-1.75484 -3.76392,-1.38191 z"
             style="fill:#bf8660;fill-opacity:1;stroke:none;stroke-width:0.55754721px;stroke-linecap:butt;stroke-linejoin:miter;stroke-opacity:1" />
          <path
             id="path1312-9-1"
             d="m 122.84931,244.96898 c -1.04459,-1.71809 -0.20644,-5.00416 0.4328,-5.93594 0.7026,-3.20698 9.03748,-6.97646 9.89704,-5.3503 0.24917,0.54349 -0.92751,0.88083 -2.05938,1.50751 -1.54367,0.85469 -3.28557,1.98608 -3.81093,2.50058 -0.91058,0.89175 -1.55687,2.35386 -1.17855,3.30543 0.28472,0.71615 1.4308,2.10932 3.08406,1.8598 0.96367,-0.14544 1.61974,-0.66812 2.14726,-1.18569 0.61219,-0.60065 0.45576,-2.10546 1.34202,-2.06589 1.42773,0.0637 0.7735,3.25647 -0.0826,4.11988 -1.57788,1.59129 -4.3471,3.47129 -4.71617,3.14735 z"
             style="fill:#ffb380;fill-opacity:1;stroke:none;stroke-width:0.55754721px;stroke-linecap:butt;stroke-linejoin:miter;stroke-opacity:1" />
          <path
             id="path1103-5-3"
             d="m 111.46014,265.94572 c 6.62041,-1.35632 15.37057,-12.85715 16.39568,-16.95845 0.19488,-0.77961 0.86914,-1.21757 0.70579,-1.48847 -0.75584,-1.25359 -4.62209,-4.73444 -6.95022,-5.1886 -0.87637,-0.17101 -0.6893,1.50173 -1.26613,1.82575 -2.4228,1.36117 -7.86952,8.9071 -11.64314,10.06257 -5.52103,2.01381 -7.80157,10.62888 2.75802,11.7472 z"
             style="fill:#181d27;fill-opacity:1;stroke:none;stroke-width:0.46054798px;stroke-linecap:butt;stroke-linejoin:miter;stroke-opacity:1" />
        </g>
      </g>
    </g>
  </g>
</svg>
